# xmcd
#
# Track frame offsets:
#	150
#	12982
#	28020
#	46000
#	63372
#	77940
#	89922
#	108037
#	123837
#	137550
#	153285
#	173825
#
# Disc length: 2561
#
# Revision: 3
# Processed by: cddbd v1.5.1PL0 Copyright (c) Steve Scherf et al.
# Submitted via: audiograbber 1.81.02
# Normalized: r1:TDELIM( - );r2:TSWAP
#
DISCID=9009ff0c
DTITLE=Wild Angels Tracks - Country - The 90's Decade
DYEAR=1900
DGENRE=
TTITLE0=Holly Dunn - You Really Had Me Going
TTITLE1=Lorrie Morgan - I Didn't Know My Own Strength
TTITLE2=Michelle Wright - Take It Like A Man
TTITLE3=K.T. Oslin - Come Next Monday
TTITLE4=Mindy McCready - Guys Do It All The Time
TTITLE5=Tanya Tucker - It's A Little Too Late
TTITLE6=Pam Tillis - Maybe It Was Memphis
TTITLE7=Linda Davis - Some Things Aren't Meant To Be
TTITLE8=Baillie And The Boys - Fool Such As I
TTITLE9=Carlene Carter - I Fell In Love
TTITLE10=Lari White - Now I Know
TTITLE11=Sara Evans - Three Chords and The Truth
EXTD=
EXTT0=
EXTT1=
EXTT2=
EXTT3=
EXTT4=
EXTT5=
EXTT6=
EXTT7=
EXTT8=
EXTT9=
EXTT10=
EXTT11=
PLAYORDER=
